<?xml version="1.0" encoding="UTF-8"?>
<svg width="24px" height="24px" viewBox="0 0 24 24" version="1.1" xmlns="http://www.w3.org/2000/svg" xmlns:xlink="http://www.w3.org/1999/xlink">
    <title>Group 2</title>
    <g id="INDEX-V2" stroke="none" stroke-width="1" fill="none" fill-rule="evenodd">
        <g id="Artist-Index-V2-Mobile" transform="translate(-305.000000, -585.000000)">
            <g id="Group-9" transform="translate(27.000000, 572.000000)">
                <g id="Group-2" transform="translate(278.000000, 13.000000)">
                    <rect id="Rectangle" x="0" y="0" width="24" height="24"></rect>
                    <path d="M9,2 C5.1458514,2 2,5.1458514 2,9 C2,12.854149 5.1458514,16 9,16 C10.747998,16 12.345009,15.348024 13.574219,14.28125 L14,14.707031 L14,16 L19.585938,21.585938 C20.137937,22.137937 21.033938,22.137938 21.585938,21.585938 C22.137938,21.033938 22.137938,20.137938 21.585938,19.585938 L16,14 L14.707031,14 L14.28125,13.574219 C15.348024,12.345009 16,10.747998 16,9 C16,5.1458514 12.854149,2 9,2 Z M9,4 C11.773268,4 14,6.2267316 14,9 C14,11.773268 11.773268,14 9,14 C6.2267316,14 4,11.773268 4,9 C4,6.2267316 6.2267316,4 9,4 Z" id="Shape" fill="currentColor" fill-rule="nonzero"></path>
                </g>
            </g>
        </g>
    </g>
</svg>
